<mxfile host="app.diagrams.net" modified="2020-10-11T19:43:13.355Z" agent="5.0 (Macintosh; Intel Mac OS X 10_15_6) AppleWebKit/605.1.15 (KHTML, like Gecko) Version/14.0 Safari/605.1.15" etag="82ZOQw0XgHX2rifoI8XP" version="13.7.9" type="github">
  <diagram id="R2lEEEUBdFMjLlhIrx00" name="Page-1">
    <mxGraphModel dx="1113" dy="779" grid="1" gridSize="10" guides="1" tooltips="1" connect="1" arrows="1" fold="1" page="1" pageScale="1" pageWidth="850" pageHeight="1100" math="0" shadow="0" extFonts="Permanent Marker^https://fonts.googleapis.com/css?family=Permanent+Marker">
      <root>
        <mxCell id="0" />
        <mxCell id="1" parent="0" />
        <mxCell id="tRWSrQHE27AdTdEi5k7c-10" value="" style="endArrow=ERmany;html=1;exitX=0;exitY=0.5;exitDx=0;exitDy=0;fontSize=11;startArrow=ERmandOne;startFill=0;endFill=0;entryX=1;entryY=0.5;entryDx=0;entryDy=0;" edge="1" parent="1" source="C-vyLk0tnHw3VtMMgP7b-24" target="tRWSrQHE27AdTdEi5k7c-6">
          <mxGeometry width="50" height="50" relative="1" as="geometry">
            <mxPoint x="400" y="370" as="sourcePoint" />
            <mxPoint x="440" y="240" as="targetPoint" />
            <Array as="points" />
          </mxGeometry>
        </mxCell>
        <mxCell id="tRWSrQHE27AdTdEi5k7c-18" value="" style="endArrow=ERmany;html=1;fontSize=11;startArrow=ERmandOne;startFill=0;endFill=0;entryX=0;entryY=0.5;entryDx=0;entryDy=0;" edge="1" parent="1" target="tRWSrQHE27AdTdEi5k7c-12">
          <mxGeometry width="50" height="50" relative="1" as="geometry">
            <mxPoint x="420" y="105.00999999999999" as="sourcePoint" />
            <mxPoint x="530" y="100" as="targetPoint" />
            <Array as="points">
              <mxPoint x="480" y="105" />
            </Array>
          </mxGeometry>
        </mxCell>
        <mxCell id="tRWSrQHE27AdTdEi5k7c-2" value="Tests" style="shape=table;startSize=30;container=1;collapsible=1;childLayout=tableLayout;fixedRows=1;rowLines=0;fontStyle=1;align=center;resizeLast=1;fontSize=11;" vertex="1" parent="1">
          <mxGeometry x="220" y="40" width="200" height="140" as="geometry" />
        </mxCell>
        <mxCell id="tRWSrQHE27AdTdEi5k7c-3" value="" style="shape=partialRectangle;collapsible=0;dropTarget=0;pointerEvents=0;fillColor=none;points=[[0,0.5],[1,0.5]];portConstraint=eastwest;top=0;left=0;right=0;bottom=1;fontSize=11;" vertex="1" parent="tRWSrQHE27AdTdEi5k7c-2">
          <mxGeometry y="30" width="200" height="20" as="geometry" />
        </mxCell>
        <mxCell id="tRWSrQHE27AdTdEi5k7c-4" value="PK" style="shape=partialRectangle;overflow=hidden;connectable=0;fillColor=none;top=0;left=0;bottom=0;right=0;fontStyle=1;fontSize=11;" vertex="1" parent="tRWSrQHE27AdTdEi5k7c-3">
          <mxGeometry width="30" height="20" as="geometry" />
        </mxCell>
        <mxCell id="tRWSrQHE27AdTdEi5k7c-5" value="id int NOT NULL " style="shape=partialRectangle;overflow=hidden;connectable=0;fillColor=none;top=0;left=0;bottom=0;right=0;align=left;spacingLeft=6;fontStyle=5;fontSize=11;" vertex="1" parent="tRWSrQHE27AdTdEi5k7c-3">
          <mxGeometry x="30" width="170" height="20" as="geometry" />
        </mxCell>
        <mxCell id="tRWSrQHE27AdTdEi5k7c-6" value="" style="shape=partialRectangle;collapsible=0;dropTarget=0;pointerEvents=0;fillColor=none;points=[[0,0.5],[1,0.5]];portConstraint=eastwest;top=0;left=0;right=0;bottom=0;fontSize=11;" vertex="1" parent="tRWSrQHE27AdTdEi5k7c-2">
          <mxGeometry y="50" width="200" height="90" as="geometry" />
        </mxCell>
        <mxCell id="tRWSrQHE27AdTdEi5k7c-7" value="FK1&#xa;FK2" style="shape=partialRectangle;overflow=hidden;connectable=0;fillColor=none;top=0;left=0;bottom=0;right=0;fontSize=11;verticalAlign=top;" vertex="1" parent="tRWSrQHE27AdTdEi5k7c-6">
          <mxGeometry width="30" height="90" as="geometry" />
        </mxCell>
        <mxCell id="tRWSrQHE27AdTdEi5k7c-8" value="question_id NOT NULL&#xa;category_id NOT NULL&#xa;title char(50) NOT NULL&#xa;level int default: 0&#xa;created_at DATE&#xa;updated_at DATE" style="shape=partialRectangle;overflow=hidden;connectable=0;fillColor=none;top=0;left=0;bottom=0;right=0;align=left;spacingLeft=6;fontSize=11;spacing=2;verticalAlign=top;" vertex="1" parent="tRWSrQHE27AdTdEi5k7c-6">
          <mxGeometry x="30" width="170" height="90" as="geometry" />
        </mxCell>
        <mxCell id="tRWSrQHE27AdTdEi5k7c-11" value="Questions" style="shape=table;startSize=30;container=1;collapsible=1;childLayout=tableLayout;fixedRows=1;rowLines=0;fontStyle=1;align=center;resizeLast=1;fontSize=11;" vertex="1" parent="1">
          <mxGeometry x="535" y="20" width="165" height="150" as="geometry" />
        </mxCell>
        <mxCell id="tRWSrQHE27AdTdEi5k7c-12" value="" style="shape=partialRectangle;collapsible=0;dropTarget=0;pointerEvents=0;fillColor=none;points=[[0,0.5],[1,0.5]];portConstraint=eastwest;top=0;left=0;right=0;bottom=1;fontSize=11;" vertex="1" parent="tRWSrQHE27AdTdEi5k7c-11">
          <mxGeometry y="30" width="165" height="30" as="geometry" />
        </mxCell>
        <mxCell id="tRWSrQHE27AdTdEi5k7c-13" value="PK" style="shape=partialRectangle;overflow=hidden;connectable=0;fillColor=none;top=0;left=0;bottom=0;right=0;fontStyle=1;fontSize=11;" vertex="1" parent="tRWSrQHE27AdTdEi5k7c-12">
          <mxGeometry width="30" height="30" as="geometry" />
        </mxCell>
        <mxCell id="tRWSrQHE27AdTdEi5k7c-14" value="id int NOT NULL " style="shape=partialRectangle;overflow=hidden;connectable=0;fillColor=none;top=0;left=0;bottom=0;right=0;align=left;spacingLeft=6;fontStyle=5;fontSize=11;" vertex="1" parent="tRWSrQHE27AdTdEi5k7c-12">
          <mxGeometry x="30" width="135" height="30" as="geometry" />
        </mxCell>
        <mxCell id="tRWSrQHE27AdTdEi5k7c-15" value="" style="shape=partialRectangle;collapsible=0;dropTarget=0;pointerEvents=0;fillColor=none;points=[[0,0.5],[1,0.5]];portConstraint=eastwest;top=0;left=0;right=0;bottom=0;fontSize=11;" vertex="1" parent="tRWSrQHE27AdTdEi5k7c-11">
          <mxGeometry y="60" width="165" height="70" as="geometry" />
        </mxCell>
        <mxCell id="tRWSrQHE27AdTdEi5k7c-16" value="" style="shape=partialRectangle;overflow=hidden;connectable=0;fillColor=none;top=0;left=0;bottom=0;right=0;fontSize=11;" vertex="1" parent="tRWSrQHE27AdTdEi5k7c-15">
          <mxGeometry width="30" height="70" as="geometry" />
        </mxCell>
        <mxCell id="tRWSrQHE27AdTdEi5k7c-17" value="test_id NOT NULL&#xa;answer_id&#xa;body text NOT NULL&#xa;created_at DATE&#xa;updated_at DATE" style="shape=partialRectangle;overflow=hidden;connectable=0;fillColor=none;top=0;left=0;bottom=0;right=0;align=left;spacingLeft=6;fontSize=11;" vertex="1" parent="tRWSrQHE27AdTdEi5k7c-15">
          <mxGeometry x="30" width="135" height="70" as="geometry" />
        </mxCell>
        <mxCell id="tRWSrQHE27AdTdEi5k7c-19" value="" style="shape=partialRectangle;collapsible=0;dropTarget=0;pointerEvents=0;fillColor=none;points=[[0,0.5],[1,0.5]];portConstraint=eastwest;top=0;left=0;right=0;bottom=0;fontSize=11;" vertex="1" parent="tRWSrQHE27AdTdEi5k7c-11">
          <mxGeometry y="130" width="165" height="20" as="geometry" />
        </mxCell>
        <mxCell id="tRWSrQHE27AdTdEi5k7c-20" value="" style="shape=partialRectangle;overflow=hidden;connectable=0;fillColor=none;top=0;left=0;bottom=0;right=0;fontSize=11;" vertex="1" parent="tRWSrQHE27AdTdEi5k7c-19">
          <mxGeometry width="30" height="20" as="geometry" />
        </mxCell>
        <mxCell id="tRWSrQHE27AdTdEi5k7c-21" value="" style="shape=partialRectangle;overflow=hidden;connectable=0;fillColor=none;top=0;left=0;bottom=0;right=0;align=left;spacingLeft=6;fontSize=11;" vertex="1" parent="tRWSrQHE27AdTdEi5k7c-19">
          <mxGeometry x="30" width="135" height="20" as="geometry" />
        </mxCell>
        <mxCell id="C-vyLk0tnHw3VtMMgP7b-23" value="Categories" style="shape=table;startSize=30;container=1;collapsible=1;childLayout=tableLayout;fixedRows=1;rowLines=0;fontStyle=1;align=center;resizeLast=1;fontSize=11;" parent="1" vertex="1">
          <mxGeometry x="490" y="190" width="190" height="110" as="geometry" />
        </mxCell>
        <mxCell id="C-vyLk0tnHw3VtMMgP7b-24" value="" style="shape=partialRectangle;collapsible=0;dropTarget=0;pointerEvents=0;fillColor=none;points=[[0,0.5],[1,0.5]];portConstraint=eastwest;top=0;left=0;right=0;bottom=1;fontSize=11;" parent="C-vyLk0tnHw3VtMMgP7b-23" vertex="1">
          <mxGeometry y="30" width="190" height="30" as="geometry" />
        </mxCell>
        <mxCell id="C-vyLk0tnHw3VtMMgP7b-25" value="PK" style="shape=partialRectangle;overflow=hidden;connectable=0;fillColor=none;top=0;left=0;bottom=0;right=0;fontStyle=1;fontSize=11;" parent="C-vyLk0tnHw3VtMMgP7b-24" vertex="1">
          <mxGeometry width="30" height="30" as="geometry" />
        </mxCell>
        <mxCell id="C-vyLk0tnHw3VtMMgP7b-26" value="id int NOT NULL " style="shape=partialRectangle;overflow=hidden;connectable=0;fillColor=none;top=0;left=0;bottom=0;right=0;align=left;spacingLeft=6;fontStyle=5;fontSize=11;" parent="C-vyLk0tnHw3VtMMgP7b-24" vertex="1">
          <mxGeometry x="30" width="160" height="30" as="geometry" />
        </mxCell>
        <mxCell id="C-vyLk0tnHw3VtMMgP7b-27" value="" style="shape=partialRectangle;collapsible=0;dropTarget=0;pointerEvents=0;fillColor=none;points=[[0,0.5],[1,0.5]];portConstraint=eastwest;top=0;left=0;right=0;bottom=0;fontSize=11;" parent="C-vyLk0tnHw3VtMMgP7b-23" vertex="1">
          <mxGeometry y="60" width="190" height="50" as="geometry" />
        </mxCell>
        <mxCell id="C-vyLk0tnHw3VtMMgP7b-28" value="" style="shape=partialRectangle;overflow=hidden;connectable=0;fillColor=none;top=0;left=0;bottom=0;right=0;fontSize=11;" parent="C-vyLk0tnHw3VtMMgP7b-27" vertex="1">
          <mxGeometry width="30" height="50" as="geometry" />
        </mxCell>
        <mxCell id="C-vyLk0tnHw3VtMMgP7b-29" value="title char(50) NOT NULL&#xa;created_at DATE&#xa;updated_at DATE" style="shape=partialRectangle;overflow=hidden;connectable=0;fillColor=none;top=0;left=0;bottom=0;right=0;align=left;spacingLeft=6;fontSize=11;" parent="C-vyLk0tnHw3VtMMgP7b-27" vertex="1">
          <mxGeometry x="30" width="160" height="50" as="geometry" />
        </mxCell>
        <mxCell id="tRWSrQHE27AdTdEi5k7c-22" value="Users" style="shape=table;startSize=30;container=1;collapsible=1;childLayout=tableLayout;fixedRows=1;rowLines=0;fontStyle=1;align=center;resizeLast=1;fontSize=11;" vertex="1" parent="1">
          <mxGeometry x="40" y="240" width="190" height="130" as="geometry" />
        </mxCell>
        <mxCell id="tRWSrQHE27AdTdEi5k7c-23" value="" style="shape=partialRectangle;collapsible=0;dropTarget=0;pointerEvents=0;fillColor=none;points=[[0,0.5],[1,0.5]];portConstraint=eastwest;top=0;left=0;right=0;bottom=1;fontSize=11;" vertex="1" parent="tRWSrQHE27AdTdEi5k7c-22">
          <mxGeometry y="30" width="190" height="30" as="geometry" />
        </mxCell>
        <mxCell id="tRWSrQHE27AdTdEi5k7c-24" value="PK" style="shape=partialRectangle;overflow=hidden;connectable=0;fillColor=none;top=0;left=0;bottom=0;right=0;fontStyle=1;fontSize=11;" vertex="1" parent="tRWSrQHE27AdTdEi5k7c-23">
          <mxGeometry width="30" height="30" as="geometry" />
        </mxCell>
        <mxCell id="tRWSrQHE27AdTdEi5k7c-25" value="id int NOT NULL " style="shape=partialRectangle;overflow=hidden;connectable=0;fillColor=none;top=0;left=0;bottom=0;right=0;align=left;spacingLeft=6;fontStyle=5;fontSize=11;" vertex="1" parent="tRWSrQHE27AdTdEi5k7c-23">
          <mxGeometry x="30" width="160" height="30" as="geometry" />
        </mxCell>
        <mxCell id="tRWSrQHE27AdTdEi5k7c-26" value="" style="shape=partialRectangle;collapsible=0;dropTarget=0;pointerEvents=0;fillColor=none;points=[[0,0.5],[1,0.5]];portConstraint=eastwest;top=0;left=0;right=0;bottom=0;fontSize=11;" vertex="1" parent="tRWSrQHE27AdTdEi5k7c-22">
          <mxGeometry y="60" width="190" height="70" as="geometry" />
        </mxCell>
        <mxCell id="tRWSrQHE27AdTdEi5k7c-27" value="" style="shape=partialRectangle;overflow=hidden;connectable=0;fillColor=none;top=0;left=0;bottom=0;right=0;fontSize=11;" vertex="1" parent="tRWSrQHE27AdTdEi5k7c-26">
          <mxGeometry width="30" height="70" as="geometry" />
        </mxCell>
        <mxCell id="tRWSrQHE27AdTdEi5k7c-28" value="username char(50) NOT NULL&#xa;email char(50) NOT NULL&#xa;password char(50) NOT NULL&#xa;created_at DATE&#xa;updated_at DATE" style="shape=partialRectangle;overflow=hidden;connectable=0;fillColor=none;top=0;left=0;bottom=0;right=0;align=left;spacingLeft=6;fontSize=11;" vertex="1" parent="tRWSrQHE27AdTdEi5k7c-26">
          <mxGeometry x="30" width="160" height="70" as="geometry" />
        </mxCell>
        <mxCell id="tRWSrQHE27AdTdEi5k7c-30" value="Answers" style="shape=table;startSize=30;container=1;collapsible=1;childLayout=tableLayout;fixedRows=1;rowLines=0;fontStyle=1;align=center;resizeLast=1;fontSize=11;" vertex="1" parent="1">
          <mxGeometry x="260" y="330" width="190" height="130" as="geometry" />
        </mxCell>
        <mxCell id="tRWSrQHE27AdTdEi5k7c-31" value="" style="shape=partialRectangle;collapsible=0;dropTarget=0;pointerEvents=0;fillColor=none;points=[[0,0.5],[1,0.5]];portConstraint=eastwest;top=0;left=0;right=0;bottom=1;fontSize=11;" vertex="1" parent="tRWSrQHE27AdTdEi5k7c-30">
          <mxGeometry y="30" width="190" height="30" as="geometry" />
        </mxCell>
        <mxCell id="tRWSrQHE27AdTdEi5k7c-32" value="PK" style="shape=partialRectangle;overflow=hidden;connectable=0;fillColor=none;top=0;left=0;bottom=0;right=0;fontStyle=1;fontSize=11;" vertex="1" parent="tRWSrQHE27AdTdEi5k7c-31">
          <mxGeometry width="30" height="30" as="geometry" />
        </mxCell>
        <mxCell id="tRWSrQHE27AdTdEi5k7c-33" value="id int NOT NULL " style="shape=partialRectangle;overflow=hidden;connectable=0;fillColor=none;top=0;left=0;bottom=0;right=0;align=left;spacingLeft=6;fontStyle=5;fontSize=11;" vertex="1" parent="tRWSrQHE27AdTdEi5k7c-31">
          <mxGeometry x="30" width="160" height="30" as="geometry" />
        </mxCell>
        <mxCell id="tRWSrQHE27AdTdEi5k7c-34" value="" style="shape=partialRectangle;collapsible=0;dropTarget=0;pointerEvents=0;fillColor=none;points=[[0,0.5],[1,0.5]];portConstraint=eastwest;top=0;left=0;right=0;bottom=0;fontSize=11;" vertex="1" parent="tRWSrQHE27AdTdEi5k7c-30">
          <mxGeometry y="60" width="190" height="70" as="geometry" />
        </mxCell>
        <mxCell id="tRWSrQHE27AdTdEi5k7c-35" value="FK1" style="shape=partialRectangle;overflow=hidden;connectable=0;fillColor=none;top=0;left=0;bottom=0;right=0;fontSize=11;verticalAlign=top;fontStyle=0" vertex="1" parent="tRWSrQHE27AdTdEi5k7c-34">
          <mxGeometry width="30" height="70" as="geometry" />
        </mxCell>
        <mxCell id="tRWSrQHE27AdTdEi5k7c-36" value="question_id NOT NULL&#xa;body char(50) NOT NULL&#xa;created_at DATE&#xa;updated_at DATE" style="shape=partialRectangle;overflow=hidden;connectable=0;fillColor=none;top=0;left=0;bottom=0;right=0;align=left;spacingLeft=6;fontSize=11;" vertex="1" parent="tRWSrQHE27AdTdEi5k7c-34">
          <mxGeometry x="30" width="160" height="70" as="geometry" />
        </mxCell>
      </root>
    </mxGraphModel>
  </diagram>
</mxfile>
